HIERARCHY
ROOT Hips
{
	OFFSET -0.001795 -0.223333 0.028219
	CHANNELS 6 Xposition Yposition Zposition Zrotation Yrotation Xrotation 
	JOINT LeftUpLeg
	{
		OFFSET 0.069520 -0.091406 -0.006815
		CHANNELS 3 Zrotation Yrotation Xrotation
		JOINT LeftLeg
		{
			OFFSET 0.034277 -0.375199 -0.004496
			CHANNELS 3 Zrotation Yrotation Xrotation
			JOINT LeftFoot
			{
				OFFSET -0.013596 -0.397961 -0.043693
				CHANNELS 3 Zrotation Yrotation Xrotation
				JOINT LeftToe
				{
					OFFSET 0.026358 -0.055791 0.119288
					CHANNELS 3 Zrotation Yrotation Xrotation
					End Site
					{
						OFFSET 0.000000 0.000000 0.000000
					}
				}
			}
		}
	}
	JOINT RightUpLeg
	{
		OFFSET -0.067670 -0.090522 -0.004320
		CHANNELS 3 Zrotation Yrotation Xrotation
		JOINT RightLeg
		{
			OFFSET -0.038290 -0.382569 -0.008850
			CHANNELS 3 Zrotation Yrotation Xrotation
			JOINT RightFoot
			{
				OFFSET 0.015774 -0.398415 -0.042312
				CHANNELS 3 Zrotation Yrotation Xrotation
				JOINT RightToe
				{
					OFFSET -0.025372 -0.048144 0.123348
					CHANNELS 3 Zrotation Yrotation Xrotation
					End Site
					{
						OFFSET 0.000000 0.000000 0.000000
					}
				}
			}
		}
	}
	JOINT Spine
	{
		OFFSET -0.002533 0.108963 -0.026696
		CHANNELS 3 Zrotation Yrotation Xrotation
		JOINT Spine1
		{
			OFFSET 0.005487 0.135180 0.001092
			CHANNELS 3 Zrotation Yrotation Xrotation
			JOINT Spine2
			{
				OFFSET 0.001457 0.052922 0.025425
				CHANNELS 3 Zrotation Yrotation Xrotation
				JOINT Neck
				{
					OFFSET -0.002778 0.213870 -0.042857
					CHANNELS 3 Zrotation Yrotation Xrotation
					JOINT Head
					{
						OFFSET 0.005152 0.064970 0.051349
						CHANNELS 3 Zrotation Yrotation Xrotation
						End Site
						{
							OFFSET 0.000000 0.000000 0.000000
						}
					}
				}
				JOINT LeftShoulder
				{
					OFFSET 0.078845 0.121749 -0.034090
					CHANNELS 3 Zrotation Yrotation Xrotation
					JOINT LeftArm
					{
						OFFSET 0.090977 0.030469 -0.008868
						CHANNELS 3 Zrotation Yrotation Xrotation
						JOINT LeftForeArm
						{
							OFFSET 0.259612 -0.012772 -0.027456
							CHANNELS 3 Zrotation Yrotation Xrotation
							JOINT LeftHand
							{
								OFFSET 0.249234 0.008986 -0.001171
								CHANNELS 3 Zrotation Yrotation Xrotation
								End Site
								{
									OFFSET 0.000000 0.000000 0.000000
								}
							}
						}
					}
				}
				JOINT RightShoulder
				{
					OFFSET -0.081759 0.118833 -0.038615
					CHANNELS 3 Zrotation Yrotation Xrotation
					JOINT RightArm
					{
						OFFSET -0.096012 0.032551 -0.009143
						CHANNELS 3 Zrotation Yrotation Xrotation
						JOINT RightForeArm
						{
							OFFSET -0.253742 -0.013329 -0.021401
							CHANNELS 3 Zrotation Yrotation Xrotation
							JOINT RightHand
							{
								OFFSET -0.255298 0.007772 -0.005559
								CHANNELS 3 Zrotation Yrotation Xrotation
								End Site
								{
									OFFSET 0.000000 0.000000 0.000000
								}
							}
						}
					}
				}
			}
		}
	}
}
MOTION
Frames: 7
Frame Time: 0.050000
0.000000 0.880281 0.000000 -2.042332 -6.411513 6.398478 2.685618 -1.706657 -36.816371 -9.535033 4.587101 40.743426 11.595402 23.434372 0.644235 0.000000 0.000000 0.000000 -10.010719 1.644714 -34.490398 13.150600 -4.654760 62.362366 -8.854128 -21.877836 4.726726 0.000000 0.000000 0.000000 -0.536524 -0.193248 61.922812 -4.112472 1.393511 -26.301599 -4.779528 2.690681 23.080341 14.645469 -7.610876 -22.010063 0.000000 0.000000 0.000000 -12.202328 -39.299617 18.000504 -30.485634 -46.777576 6.208834 28.901278 -28.643263 -6.052781 0.000000 0.000000 0.000000 25.476649 23.009158 13.351298 36.789052 39.592741 6.059556 -16.716647 46.877583 -4.480899 0.000000 0.000000 0.000000 
0.000172 0.869646 0.039304 -3.838059 -6.970841 5.598903 5.142861 -0.819938 -35.716068 -10.137065 5.672014 45.724417 10.946053 22.400655 -2.415663 0.000000 0.000000 0.000000 -9.387078 2.257361 -40.213172 15.258807 -5.738014 57.706327 -9.210243 -22.867459 1.566414 0.000000 0.000000 0.000000 0.097431 -0.433779 63.225344 -2.074692 0.922467 -25.789434 -7.130481 4.811007 22.615105 16.434210 -7.968085 -23.454305 0.000000 0.000000 0.000000 -9.512232 -41.562877 17.630827 -28.937000 -45.605559 5.453180 29.082930 -26.843885 -5.843333 0.000000 0.000000 0.000000 29.966109 23.769014 15.769897 31.994339 39.613650 4.561101 -20.123427 48.764971 -6.053735 0.000000 0.000000 0.000000 
-0.000361 0.856932 0.079085 -3.700834 -5.712761 3.262070 5.636767 -0.836140 -34.624818 -10.872744 6.444185 50.935065 10.933578 22.043600 0.784070 0.000000 0.000000 0.000000 -10.594938 1.847080 -44.546710 15.695075 -5.803596 49.598521 -9.241091 -22.836265 3.000443 0.000000 0.000000 0.000000 -0.202868 -0.757405 66.554186 -2.637641 1.074824 -25.372903 -5.502689 3.469834 21.350950 13.540898 -6.980680 -20.426717 0.000000 0.000000 0.000000 -15.354312 -44.670345 21.431498 -20.633275 -41.610605 2.495794 27.379840 -24.345624 -5.032971 0.000000 0.000000 0.000000 24.311767 24.884272 14.559651 33.201198 40.475985 5.501675 -21.657619 46.708200 -6.608838 0.000000 0.000000 0.000000 
-0.001105 0.840197 0.119433 -4.473499 -5.222790 0.659318 7.095026 -0.446012 -31.914445 -11.899777 7.759572 56.671781 10.542376 21.358153 -1.431806 0.000000 0.000000 0.000000 -8.936655 2.432999 -46.588814 13.048746 -3.699175 38.035789 -8.746607 -21.694058 7.459857 0.000000 0.000000 0.000000 0.606770 -1.623529 70.042797 -4.284571 1.494364 -24.193814 -5.727266 1.090205 20.247669 11.565512 -5.908178 -20.735180 0.000000 0.000000 0.000000 -13.289212 -45.933288 21.445791 -19.353139 -43.341798 2.572154 26.485188 -20.594085 -4.096316 0.000000 0.000000 0.000000 24.611753 26.766238 14.887449 31.207632 40.662101 5.310002 -25.289002 46.278679 -8.425569 0.000000 0.000000 0.000000 
-0.001792 0.816377 0.161221 -4.151012 -4.466798 -1.913005 8.611567 -0.086951 -30.460667 -13.892776 10.048768 63.625656 11.101663 22.665929 -5.521477 0.000000 0.000000 0.000000 -8.622596 2.379608 -46.954343 10.327519 -2.162029 26.724038 -7.204259 -18.809019 11.833748 0.000000 0.000000 0.000000 0.383435 -1.870538 72.405461 -5.159376 1.751003 -23.768323 -5.961729 -1.107188 20.143281 11.392965 -6.240744 -20.361046 0.000000 0.000000 0.000000 -13.721594 -48.016365 22.885006 -15.655214 -41.231941 1.444512 24.709194 -18.624831 -3.455996 0.000000 0.000000 0.000000 25.249216 29.866560 16.116638 28.942769 41.427121 5.092651 -27.504369 43.332883 -9.002646 0.000000 0.000000 0.000000 
-0.001601 0.790232 0.205022 -3.781235 -3.907224 -4.215845 10.017174 0.209080 -26.847289 -17.222023 13.183504 67.178310 12.209445 25.310345 -8.305035 0.000000 0.000000 0.000000 -9.148924 2.061278 -47.907384 9.459181 -1.685744 19.570251 -5.259675 -15.607475 15.268808 0.000000 0.000000 0.000000 0.590489 -2.386125 74.718243 -5.898792 2.022875 -22.093308 -6.556388 -2.511757 18.208276 11.515165 -6.300564 -20.957542 0.000000 0.000000 0.000000 -15.638420 -49.700415 24.800635 -14.456310 -38.693631 1.060908 23.130833 -18.138844 -3.143857 0.000000 0.000000 0.000000 25.612564 30.590585 16.094301 30.079949 40.515506 5.483191 -27.945756 43.687940 -9.476552 0.000000 0.000000 0.000000 
-0.001330 0.762091 0.250848 -3.804022 -2.003660 -5.636012 10.797794 0.208449 -23.914085 -18.344547 14.226635 72.285426 11.868673 25.115676 -13.351241 0.000000 0.000000 0.000000 -9.994912 1.236630 -48.179032 9.232313 -1.544268 14.644106 -5.701960 -16.264040 17.863429 0.000000 0.000000 0.000000 1.184606 -3.918980 76.680943 -7.385981 2.380189 -24.792257 -5.674155 -3.671913 20.301754 10.783418 -6.249471 -20.920851 0.000000 0.000000 0.000000 -19.799827 -51.632561 28.089022 -12.565386 -37.622985 0.483799 20.663143 -18.394189 -2.843257 0.000000 0.000000 0.000000 27.968835 31.116539 16.570907 28.503081 37.563450 4.330856 -26.636458 44.849619 -9.372703 0.000000 0.000000 0.000000 
